<svg width="32" height="32" viewBox="0 0 32 32" fill="none" xmlns="http://www.w3.org/2000/svg">
    <rect width="32" height="32" rx="10" fill="#FF6B4A"/>
    <path d="M8.88826 17.5392C9.02181 17.6231 9.1764 17.6673 9.33408 17.6668H15.1668C15.3015 17.6663 15.4344 17.6986 15.554 17.7608C15.6736 17.823 15.7763 17.9133 15.8533 18.0239C15.9303 18.1346 15.9793 18.2622 15.9962 18.396C16.013 18.5297 15.9972 18.6656 15.95 18.7918L14.3502 23.8088C14.3251 23.8999 14.3318 23.9969 14.3691 24.0837C14.4064 24.1706 14.4721 24.2422 14.5554 24.2867C14.6387 24.3313 14.7347 24.3462 14.8276 24.3291C14.9206 24.3119 15.0049 24.2636 15.0668 24.1922L23.3158 15.6917C23.4152 15.5692 23.4777 15.421 23.4962 15.2644C23.5147 15.1078 23.4884 14.9491 23.4204 14.8069C23.3524 14.6646 23.2453 14.5446 23.1117 14.4608C22.9782 14.3769 22.8236 14.3327 22.6659 14.3332H16.8332C16.6985 14.3337 16.5656 14.3014 16.446 14.2392C16.3264 14.177 16.2237 14.0867 16.1467 13.9761C16.0697 13.8654 16.0207 13.7378 16.0038 13.604C15.987 13.4703 16.0028 13.3344 16.05 13.2082L17.6498 8.1912C17.6749 8.10007 17.6682 8.00312 17.6309 7.91628C17.5936 7.82943 17.5279 7.75784 17.4446 7.71326C17.3613 7.66868 17.2653 7.65376 17.1724 7.67095C17.0794 7.68814 16.9951 7.73641 16.9332 7.80785L8.68416 16.3084C8.58482 16.4308 8.52226 16.579 8.50376 16.7356C8.48526 16.8922 8.51156 17.0509 8.57963 17.1931C8.64769 17.3354 8.75471 17.4554 8.88826 17.5392Z" stroke="white" stroke-width="2" stroke-linecap="round"/>
</svg>
